<svg xmlns="http://www.w3.org/2000/svg" viewBox="0 0 2394 1950" xml:space="preserve"><path fill="#F1B818" d="M2396 393.063c-4.796-1.234-3.286 3.126-3.585 4.768-2.198 12.08-3.895 24.256-6.22 36.31-10.311 53.477-20.84 106.912-31.179 160.383-12.48 64.551-24.81 129.132-37.278 193.686-9.445 48.907-19.007 97.793-28.506 146.69-9.686 49.869-19.115 99.79-29.186 149.58-3.023 14.942-7.396 29.655-11.877 44.25-13.87 45.18-30.924 89.18-50.803 132.044-20.597 44.409-44.073 87.297-70.21 128.69-27.203 43.08-56.42 84.772-89.027 123.943-19.977 24-40.424 47.671-61.776 70.444-22.08 23.55-44.9 46.485-68.484 68.525-39.626 37.031-81.736 71.13-125.994 102.55-60.358 42.852-123.932 80.355-190.16 113.256-56.533 28.085-116.156 47.468-178.07 59.844-35.852 7.167-71.993 12.546-108.486 14.085-38.89 1.64-77.852 1.737-116.786 2.183-53.94.618-107.885.928-161.827 1.383-23.984.203-47.968.421-71.951.664-42.61.431-85.219.95-127.829 1.312-36.982.314-73.966.398-110.947.782-3.744.039-7.475 1.44-10.516 2.887-71.345.678-143.387.678-216.26.19-1.568-.162-2.305.163-3.043.488-79.375 0-158.75 0-238.343-.578-1.555-1.4-2.791-2.579-4.245-2.988-17.553-4.948-35.54-8.676-52.634-14.872-38.385-13.915-71.95-35.906-100.083-65.53-37.727-39.726-61.849-87.057-74.595-140.075-4.638-19.293-7.023-39.129-10.44-58.716-.403-2.314.756-5.727-3.66-5.241 0-32.708 0-65.417.364-97.973 1.509-1.063 3.448-2.144 3.68-3.514 4.03-23.87 7.649-47.81 11.763-71.664 6.826-39.571 13.889-79.103 20.947-118.634 9.098-50.963 18.35-101.898 27.425-152.865 7.62-42.796 15.008-85.634 22.635-128.429 8.21-46.06 16.662-92.076 24.855-138.14 9.065-50.971 17.892-101.986 26.943-152.96 8.354-47.054 17.033-94.05 25.252-141.127 5.543-31.75 11.81-63.251 21.924-93.97 22.468-68.237 52.328-132.975 90.143-194.045 50.181-81.041 111.71-152.194 186.054-211.966 70.185-56.427 147.661-99.4 234.285-125.247 40.556-12.101 81.822-20.688 124.028-23.335 28.854-1.81 57.854-1.512 86.791-1.748 49.969-.407 99.94-.414 149.91-.743 51.934-.34 103.867-1.062 155.802-1.263 96.956-.373 193.913-.49 290.87-.717 2.332-.006 4.7.17 6.981-.186 1.543-.24 2.964-1.264 4.44-1.937Q1516.544 2.769 1516 2c170.042 0 340.084 0 511.331.437 1.694.146 2.181-.146 2.669-.437 9.379 0 18.757 0 28.37.66 2.294 1.442 4.307 2.74 6.418 2.926 43.786 3.87 86.679 12.002 128.237 26.584 50.62 17.762 95.54 44.341 132.08 84.295 27.635 30.217 47.234 64.84 58.614 104.068 3.505 12.083 5.793 24.518 8.664 36.786.435 1.86.143 4.855 3.617 2.681zM1147 1890.327c27.334 0 54.668-.141 82.001.039 33.607.22 67.042-1.883 100.402-5.968 46.99-5.752 92.93-16.169 137.815-31.012 62.095-20.534 120.96-48.41 178.077-80.082 51.015-28.289 99.61-60.305 145.634-96.118 49.407-38.446 96.019-79.99 139.106-125.539 30.889-32.653 60.355-66.429 87.84-101.978 44.282-57.277 83.095-118.032 116.176-182.419 20.842-40.566 39.377-82.19 54.231-125.329 8-23.233 16.474-46.528 21.654-70.462 11.654-53.855 21.43-108.118 31.891-162.231 11.03-57.047 21.904-114.125 32.963-171.166 7.52-38.788 15.355-77.514 22.846-116.307 12.464-64.548 24.499-129.18 37.262-193.669 5.362-27.09 9.029-54.37 10.548-81.851a320 320 0 0 0-5.132-77.407c-10.793-56.943-37.826-103.863-85.182-138.23-33.364-24.211-70.994-38.78-110.65-48.832-52.225-13.238-105.619-17.15-159.075-17.165-298.6-.09-597.2.686-895.8 1.051-21.608.026-43.22-1.303-64.826-1.233-67.614.22-135.226.792-202.839 1.289-4.315.032-8.706.158-12.924.964-17.928 3.425-35.94 6.556-53.674 10.824-62.58 15.059-121.089 40.186-176.21 73.187-56.827 34.022-107.78 75.406-153.692 123.186-28.658 29.824-54.843 61.58-78.744 95.269-30.903 43.56-57.51 89.66-79.036 138.5-19.839 45.016-38.266 90.62-46.914 139.485C210.682 704 200.35 760.828 190.15 817.68c-7.68 42.804-15.31 85.617-23.013 128.416-9.76 54.234-19.617 108.45-29.346 162.69-7.619 42.472-15.055 84.977-22.669 127.45-8.258 46.068-16.628 92.115-24.95 138.17-7.2 39.85-14.728 79.642-21.492 119.565-4.653 27.47-9.744 55-11.95 82.716-2.984 37.49-2.104 75.119 5.379 112.267 10.808 53.65 31.625 102.22 72.067 140.63 41.118 39.054 90.516 60.28 146.851 60.418 287.99.706 575.982.325 865.973.325M4.377 1575.034l.252-.633s-.638.172-.252.633"/><path fill="#F3BA18" d="M1636 232.341c60.663 0 120.345-.916 179.984.272 52.432 1.045 104.882 4.095 155.994 17.534 34.773 9.144 67.143 23.29 94.875 46.906 24.862 21.172 42.326 47.442 55.197 77.185 10.943 25.284 16.035 52.003 20.046 78.97 4.119 27.685 5.143 55.628 3.424 83.523-2.295 37.232-9.048 73.722-20.321 109.378-24.955 78.933-67.217 148.014-119.388 211.581-24.547 29.91-51.456 57.605-79.423 84.214-41.751 39.724-87.013 75.206-134.267 108.182-40.425 28.212-82.33 54.058-125.704 77.39-54.234 29.175-109.964 55.175-168.427 74.939-13.172 4.453-26.304 9.027-39.75 13.648l-41.796 251.807h-301.709l146.761-935.689h309.95l-49.087 358.842c4.284-2.759 7.296-4.648 10.257-6.612 46.88-31.099 93.249-62.94 136.958-98.414 19.597-15.906 38.277-32.941 57.37-49.466 21.731-18.806 40.643-40.236 57.87-63.131 16.394-21.79 28.135-45.592 32.42-73.05 6.073-38.928-17.619-64.024-42.67-70.7-16.613-4.426-33.675-7.732-50.748-9.736-31.389-3.684-63.007-3.67-94.604-3.64-132.326.125-264.651.053-396.977.053h-13.343l105.1-283.986z"/><path fill="#F2BA18" d="M975.712 1123.726c-3.842 27.136-7.822 53.368-11.396 79.655-9.19 67.603-27.227 132.712-55.307 194.903-21.824 48.334-48.216 94.213-79.101 137.258-29.296 40.83-65.227 75.48-106.204 104.575-39.64 28.146-81.13 53.35-124.01 76.347-61.316 32.885-124.806 61.084-188.438 89.022-1.452.638-3.03.99-5.58 1.804l-83.989-254.368c10.6-4.758 20.54-9.282 30.529-13.694 46.018-20.328 90.543-43.475 132.645-71.07 33.242-21.789 64.043-46.573 90.172-76.737 12.565-14.506 20.349-31.944 28.357-49.091 26.475-56.69 41.852-116.808 54.343-177.81 4.463-21.796 10.221-43.345 14.168-65.226 5.948-32.976 10.808-66.147 16.161-99.23 8.375-51.748 16.828-103.483 25.148-155.24 6.424-39.968 12.635-79.97 19.05-119.938 4.996-31.118 10.237-62.196 15.23-93.315 5.048-31.458 9.92-62.944 14.891-94.414.199-1.256.626-2.477 1.07-4.188h302.234c-30.049 197.103-59.988 393.49-89.973 590.757m-39.694-608.057c-8.668-.007-16.335.07-24-.02-54.93-.646-109.86-1.281-164.79-2.01-44.933-.595-89.866-1.21-134.796-2.019-28.567-.514-57.128-1.4-87.473-2.166 44.287-95.122 88.652-188.998 132.844-283.31h457.195l-41.783 291.063c-2.553.18-4.484.451-6.411.431-40.945-.423-81.89-.87-122.833-1.352-2.32-.028-4.635-.4-7.953-.617"/></svg>